<svg width="328" height="58" viewBox="0 0 328 58" fill="none" xmlns="http://www.w3.org/2000/svg">
<path d="M9.32031 23V16.0742L15.2852 6.08984H12.3789L8.06641 13.5547H7.98438L3.67188 6.08984H0.742188L6.69531 16.0742V23H9.32031ZM19.7852 23.2344C23.3125 23.2344 25.6328 20.8086 25.6328 16.8359C25.6328 12.875 23.3008 10.4492 19.7852 10.4492C16.2695 10.4492 13.9375 12.875 13.9375 16.8359C13.9375 20.8086 16.2578 23.2344 19.7852 23.2344ZM19.7852 21.1484C17.8047 21.1484 16.5156 19.5781 16.5156 16.8359C16.5156 14.1055 17.8047 12.5352 19.7852 12.5352C21.7656 12.5352 23.0547 14.1055 23.0547 16.8359C23.0547 19.5781 21.7773 21.1484 19.7852 21.1484ZM38.1602 10.6719H35.6289V17.8555C35.6289 19.7773 34.5273 21.043 32.6992 21.043C30.9531 21.043 30.0625 20.0352 30.0625 18.1602V10.6719H27.5312V18.6523C27.5312 21.4766 29.1719 23.2227 31.8555 23.2227C33.7422 23.2227 34.9961 22.3906 35.6758 20.9141H35.7344V23H38.1602V10.6719ZM61.8086 10.6719H59.3008L57.0508 20.375H56.9922L54.4141 10.6719H51.9766L49.4102 20.375H49.3633L47.1133 10.6719H44.582L47.9688 23H50.582L53.1484 13.7656H53.207L55.7969 23H58.4336L61.8086 10.6719ZM63.4375 23H65.9688V10.6719H63.4375V23ZM64.7031 8.86719C65.5234 8.86719 66.1797 8.22266 66.1797 7.42578C66.1797 6.61719 65.5234 5.97266 64.7031 5.97266C63.8945 5.97266 63.2383 6.61719 63.2383 7.42578C63.2383 8.22266 63.8945 8.86719 64.7031 8.86719ZM68.6523 23H71.1836V6.08984H68.6523V23ZM73.8789 23H76.4102V6.08984H73.8789V23ZM90.4492 23.2109C93.5781 23.2109 95.5938 20.75 95.5938 16.8359C95.5938 12.9336 93.5664 10.4727 90.4609 10.4727C88.7148 10.4727 87.3086 11.3398 86.5703 12.7695H86.5117V6.08984H83.9805V23H86.4414V20.9023H86.4883C87.25 22.332 88.6445 23.2109 90.4492 23.2109ZM89.7695 12.6055C91.7617 12.6055 92.9922 14.2461 92.9922 16.8359C92.9922 19.4492 91.7617 21.0664 89.7695 21.0664C87.8477 21.0664 86.5 19.4023 86.5 16.8359C86.5 14.293 87.8477 12.6055 89.7695 12.6055ZM102.73 12.4883C104.5 12.4883 105.695 13.8125 105.754 15.6992H99.5898C99.7188 13.8359 100.961 12.4883 102.73 12.4883ZM105.742 19.3789C105.402 20.457 104.336 21.1836 102.895 21.1836C100.867 21.1836 99.5781 19.7656 99.5781 17.6211V17.4688H108.285V16.6016C108.285 12.8633 106.152 10.4492 102.73 10.4492C99.25 10.4492 97.0234 13.0273 97.0234 16.8945C97.0234 20.7852 99.2148 23.2344 102.836 23.2344C105.66 23.2344 107.793 21.6289 108.145 19.3789H105.742ZM11.3711 34.8086C6.49609 34.8086 3.44922 38.1719 3.44922 43.5508C3.44922 48.9297 6.49609 52.2812 11.3711 52.2812C16.2344 52.2812 19.293 48.9297 19.293 43.5508C19.293 38.1719 16.2344 34.8086 11.3711 34.8086ZM11.3711 37.1172C14.582 37.1172 16.5977 39.6016 16.5977 43.5508C16.5977 47.4883 14.582 49.9727 11.3711 49.9727C8.16016 49.9727 6.13281 47.4883 6.13281 43.5508C6.13281 39.6016 8.16016 37.1172 11.3711 37.1172ZM21.4961 52H24.0273V44.8164C24.0273 42.9062 25.1758 41.6406 26.957 41.6406C28.7148 41.6406 29.582 42.6602 29.582 44.5117V52H32.125V44.0195C32.125 41.1953 30.5664 39.4609 27.8477 39.4609C25.9492 39.4609 24.6367 40.3281 23.9688 41.7344H23.9102V39.6719H21.4961V52ZM39.7305 41.4883C41.5 41.4883 42.6953 42.8125 42.7539 44.6992H36.5898C36.7188 42.8359 37.9609 41.4883 39.7305 41.4883ZM42.7422 48.3789C42.4023 49.457 41.3359 50.1836 39.8945 50.1836C37.8672 50.1836 36.5781 48.7656 36.5781 46.6211V46.4688H45.2852V45.6016C45.2852 41.8633 43.1523 39.4492 39.7305 39.4492C36.25 39.4492 34.0234 42.0273 34.0234 45.8945C34.0234 49.7852 36.2148 52.2344 39.8359 52.2344C42.6602 52.2344 44.793 50.6289 45.1445 48.3789H42.7422ZM57.4258 52.2344C60.9531 52.2344 63.2734 49.8086 63.2734 45.8359C63.2734 41.875 60.9414 39.4492 57.4258 39.4492C53.9102 39.4492 51.5781 41.875 51.5781 45.8359C51.5781 49.8086 53.8984 52.2344 57.4258 52.2344ZM57.4258 50.1484C55.4453 50.1484 54.1562 48.5781 54.1562 45.8359C54.1562 43.1055 55.4453 41.5352 57.4258 41.5352C59.4062 41.5352 60.6953 43.1055 60.6953 45.8359C60.6953 48.5781 59.418 50.1484 57.4258 50.1484ZM65.9688 52H68.5117V41.6758H70.9727V39.6953H68.4766V38.5352C68.4766 37.4453 68.9922 36.8945 70.0938 36.8945C70.4336 36.8945 70.7734 36.918 71.0195 36.9648V35.0898C70.6914 35.0312 70.1172 34.9727 69.6016 34.9727C67.0938 34.9727 65.9688 36.0977 65.9688 38.4883V39.6953H64.2695V41.6758H65.9688V52ZM73.7031 52H76.2461V41.6758H78.707V39.6953H76.2109V38.5352C76.2109 37.4453 76.7266 36.8945 77.8281 36.8945C78.168 36.8945 78.5078 36.918 78.7539 36.9648V35.0898C78.4258 35.0312 77.8516 34.9727 77.3359 34.9727C74.8281 34.9727 73.7031 36.0977 73.7031 38.4883V39.6953H72.0039V41.6758H73.7031V52ZM96.1445 39.6719H93.6133V46.8555C93.6133 48.7773 92.5117 50.043 90.6836 50.043C88.9375 50.043 88.0469 49.0352 88.0469 47.1602V39.6719H85.5156V47.6523C85.5156 50.4766 87.1562 52.2227 89.8398 52.2227C91.7266 52.2227 92.9805 51.3906 93.6602 49.9141H93.7188V52H96.1445V39.6719ZM98.4297 43.1641C98.4297 44.8867 99.5547 46.0469 101.781 46.5859L103.984 47.125C105.273 47.4531 105.742 47.8867 105.742 48.6719C105.742 49.668 104.805 50.3008 103.281 50.3008C101.734 50.3008 100.82 49.6445 100.621 48.4609H98.1133C98.3125 50.7227 100.246 52.2344 103.164 52.2344C106.188 52.2344 108.285 50.6875 108.285 48.4375C108.285 46.6211 107.348 45.6836 104.863 45.0859L102.789 44.6055C101.512 44.2891 100.902 43.7734 100.902 43.0117C100.902 42.0391 101.816 41.3711 103.188 41.3711C104.605 41.3711 105.508 42.0625 105.625 43.1758H108.004C107.922 40.9844 106 39.4492 103.258 39.4492C100.375 39.4492 98.4297 40.9609 98.4297 43.1641Z" fill="#232B35"/>
<path d="M127.58 50V32.3047H145.744V26.7676H127.58V13.3789H147.414V7.72461H121.018V50H127.58ZM152.6 50H158.928V7.72461H152.6V50ZM178.322 23.7207C182.746 23.7207 185.734 27.0312 185.881 31.748H170.471C170.793 27.0898 173.898 23.7207 178.322 23.7207ZM185.852 40.9473C185.002 43.6426 182.336 45.459 178.732 45.459C173.664 45.459 170.441 41.9141 170.441 36.5527V36.1719H192.209V34.0039C192.209 24.6582 186.877 18.623 178.322 18.623C169.621 18.623 164.055 25.0684 164.055 34.7363C164.055 44.4629 169.533 50.5859 178.586 50.5859C185.646 50.5859 190.979 46.5723 191.857 40.9473H185.852ZM208.146 38.6621L214.943 50H221.916L211.926 34.4141L222.033 19.1797H215.061L208.41 30.3418H208.293L201.555 19.1797H194.465L204.484 34.6191L194.318 50H201.174L208 38.6621H208.146ZM226.223 50H232.551V19.1797H226.223V50ZM229.387 14.668C231.438 14.668 233.078 13.0566 233.078 11.0645C233.078 9.04297 231.438 7.43164 229.387 7.43164C227.365 7.43164 225.725 9.04297 225.725 11.0645C225.725 13.0566 227.365 14.668 229.387 14.668ZM257.629 50.7031C267.355 50.7031 273.977 45.5762 275.588 36.8457H269.055C267.736 41.9434 263.547 44.9609 257.658 44.9609C249.895 44.9609 244.973 38.7207 244.973 28.8477C244.973 19.0625 249.953 12.7637 257.629 12.7637C263.371 12.7637 267.883 16.3086 269.055 21.7285H275.559C274.445 12.9102 267.209 7.02148 257.629 7.02148C245.822 7.02148 238.264 15.459 238.264 28.8477C238.264 42.3242 245.764 50.7031 257.629 50.7031ZM291.525 45.5176C288.127 45.5176 285.9 43.7598 285.9 41.0645C285.9 38.4277 288.039 36.7578 291.818 36.4941L299.406 36.0254V38.457C299.406 42.4707 295.949 45.5176 291.525 45.5176ZM289.768 50.5273C293.811 50.5273 297.707 48.3594 299.494 44.9316H299.641V50H305.705V28.7598C305.705 22.5781 300.93 18.623 293.459 18.623C285.842 18.623 281.096 22.7246 280.744 28.291H286.721C287.277 25.5371 289.562 23.7793 293.225 23.7793C297.092 23.7793 299.406 25.8301 299.406 29.2578V31.6309L290.969 32.1289C283.645 32.5391 279.514 35.8496 279.514 41.2402C279.514 46.7773 283.732 50.5273 289.768 50.5273ZM313.703 11.8848V19.1797H309.221V24.1895H313.703V41.8848C313.703 47.832 316.135 50.2051 322.375 50.2051C323.781 50.2051 325.188 50.0879 325.891 49.9121V44.9023C325.48 44.9902 324.455 45.0488 323.811 45.0488C321.232 45.0488 320.061 43.8477 320.061 41.1816V24.1895H325.92V19.1797H320.061V11.8848H313.703Z" fill="#5856D6"/>
</svg>
