<svg width="162" height="162" viewBox="0 0 162 162" fill="none" xmlns="http://www.w3.org/2000/svg">
<rect width="162" height="162" rx="81" fill="#5856D6"/>
<path fill-rule="evenodd" clip-rule="evenodd" d="M115.394 122.217C115.387 122.129 115.371 122.043 115.355 121.956C115.333 121.837 115.311 121.718 115.315 121.596C115.319 121.464 115.326 121.331 115.332 121.199C115.352 120.788 115.372 120.377 115.331 119.968C115.104 119.932 115.037 120.182 115.026 120.357C115.004 120.653 114.878 120.921 114.753 121.185C114.73 121.235 114.706 121.284 114.684 121.333C114.66 121.381 114.636 121.429 114.612 121.478C114.516 121.674 114.419 121.871 114.285 122.045C114.205 122.164 114.045 122.163 113.914 122.163L113.9 122.163C113.673 122.154 113.499 121.986 113.357 121.827C113.319 121.78 113.279 121.733 113.24 121.687C113.028 121.436 112.815 121.183 112.679 120.882C112.618 120.728 112.505 120.614 112.391 120.499C112.306 120.414 112.221 120.328 112.157 120.225L112.145 120.206C111.94 119.877 111.727 119.536 111.668 119.147C111.65 119.009 111.611 118.877 111.571 118.744C111.531 118.608 111.49 118.471 111.473 118.329C111.455 118.197 111.455 118.064 111.455 117.932C111.454 117.886 111.454 117.84 111.454 117.794C111.317 117.977 111.285 118.2 111.254 118.42C111.247 118.466 111.241 118.512 111.233 118.557C111.224 118.66 111.161 118.743 111.09 118.814C110.753 118.57 110.756 118.107 110.782 117.734C110.797 117.575 110.79 117.415 110.783 117.254C110.772 116.981 110.761 116.709 110.856 116.447C111.01 115.892 111.323 115.4 111.675 114.95C111.922 114.65 112.259 114.446 112.588 114.25C112.655 114.12 112.691 113.967 112.68 113.821C112.627 113.666 112.547 113.52 112.467 113.375C112.354 113.171 112.242 112.967 112.207 112.733C112.182 112.437 112.194 112.105 112.392 111.865C112.413 111.831 112.44 111.799 112.466 111.767C112.517 111.707 112.567 111.647 112.582 111.571C112.541 111.499 112.495 111.43 112.448 111.361C112.385 111.266 112.322 111.17 112.27 111.068C112.175 110.897 112.119 110.71 112.063 110.523C112.043 110.458 112.024 110.392 112.003 110.328C111.925 110.108 111.935 109.868 111.971 109.641C111.999 109.483 112.098 109.362 112.197 109.241C112.243 109.184 112.289 109.127 112.328 109.067C112.313 109.042 112.298 109.017 112.283 108.992C111.929 108.408 111.564 107.806 111.465 107.12C111.457 107.026 111.458 106.933 111.46 106.839C111.462 106.716 111.465 106.594 111.443 106.472C110.374 106.182 109.362 105.701 108.43 105.105C108.029 104.824 107.641 104.525 107.261 104.216C107.175 104.131 107.088 104.045 107.001 103.959C106.774 103.735 106.547 103.511 106.329 103.278C106.274 103.21 106.218 103.141 106.162 103.073C105.833 102.669 105.503 102.264 105.23 101.819C105.192 101.756 105.154 101.694 105.116 101.632C104.873 101.237 104.631 100.842 104.453 100.413C104.401 100.284 104.342 100.156 104.282 100.029C104.167 99.7797 104.051 99.5306 103.986 99.2624C103.951 99.1126 103.896 98.9696 103.84 98.8266C103.788 98.691 103.735 98.5555 103.7 98.4144C103.686 98.3571 103.672 98.2998 103.657 98.2425C103.579 97.9265 103.5 97.6102 103.453 97.2877C103.439 97.1899 103.422 97.0923 103.406 96.9946C103.358 96.7166 103.31 96.4382 103.334 96.1553C103.348 95.9554 103.343 95.7546 103.338 95.5541C103.331 95.2687 103.323 94.9836 103.374 94.7012C103.396 94.4778 103.438 94.2574 103.479 94.0369C103.504 93.8987 103.53 93.7604 103.551 93.6213C103.6 93.353 103.698 93.1005 103.796 92.848C103.866 92.6691 103.935 92.4902 103.987 92.3056C104.058 92.0888 104.148 91.8798 104.238 91.6707C104.305 91.5154 104.371 91.36 104.43 91.2013C104.479 91.0697 104.553 90.9506 104.635 90.8378C104.709 90.7378 104.764 90.6267 104.819 90.5157C104.872 90.4071 104.926 90.2985 104.997 90.2005C105.073 90.0951 105.138 89.9822 105.202 89.8693C105.279 89.7338 105.356 89.5984 105.454 89.476C105.554 89.349 105.648 89.2173 105.742 89.0857C105.881 88.89 106.021 88.6945 106.18 88.5145C106.211 88.4798 106.242 88.4451 106.272 88.4104C106.437 88.224 106.601 88.038 106.764 87.8498C107.193 87.3821 107.684 86.9781 108.181 86.5846C108.402 86.3955 108.635 86.2216 108.867 86.0478C108.909 86.0171 108.95 85.9863 108.991 85.9554C109.113 85.8638 109.245 85.7881 109.378 85.7123C109.493 85.6462 109.608 85.58 109.717 85.5034C110.019 85.3005 110.342 85.137 110.665 84.9736C110.823 84.894 110.98 84.8144 111.135 84.7302C111.65 84.5082 112.167 84.2862 112.701 84.1135C112.727 84.1048 112.753 84.096 112.779 84.0872C113.073 83.9877 113.368 83.8879 113.676 83.8398C113.86 83.8154 114.04 83.7688 114.219 83.7223C114.416 83.6713 114.613 83.6203 114.816 83.5985C114.928 83.5869 115.04 83.5701 115.152 83.5533C115.419 83.5133 115.687 83.4732 115.958 83.5031C116.113 83.5244 116.263 83.4942 116.414 83.464C116.531 83.4404 116.649 83.4168 116.769 83.4176C116.859 83.4186 116.949 83.4179 117.039 83.4171C117.333 83.4145 117.627 83.4119 117.915 83.4725C118.765 83.5267 119.612 83.7144 120.389 84.0692C120.556 84.1564 120.739 84.1795 120.923 84.2025C121.033 84.2164 121.144 84.2303 121.251 84.2582C121.948 84.454 122.637 84.7283 123.207 85.1835C123.603 85.4653 123.963 85.8027 124.252 86.1955C124.655 86.7929 124.921 87.4713 125.093 88.1684C125.152 88.4019 125.148 88.6412 125.144 88.8804C125.141 88.999 125.139 89.1175 125.145 89.2353C125.167 89.7254 125.011 90.2067 124.779 90.6332C124.767 90.6604 124.753 90.6882 124.738 90.7165C124.682 90.8263 124.621 90.944 124.687 91.061C124.737 91.1776 124.791 91.2934 124.845 91.4095C125.024 91.7948 125.203 92.1824 125.257 92.608C125.279 92.7985 125.345 92.9768 125.411 93.1551C125.45 93.2609 125.489 93.3668 125.519 93.4753C125.623 93.8725 125.88 94.2292 126.228 94.4474C126.723 94.7368 127.25 94.7099 127.886 94.5846C128.089 94.5846 128.18 94.6222 128.281 94.6638C128.318 94.6792 128.357 94.6951 128.403 94.7099C128.574 94.7928 128.66 95.0426 128.655 95.2477C128.674 95.5815 128.656 95.6303 128.554 95.9007C128.546 95.9238 128.536 95.9485 128.526 95.9751L128.52 95.9909C128.422 96.2508 128.322 96.5136 128.167 96.7464C128.119 96.8202 128.066 96.8901 128.013 96.9601C127.949 97.0441 127.886 97.128 127.831 97.2185C127.727 97.3887 127.751 97.6044 127.814 97.7853C127.853 97.8926 127.898 97.9973 127.943 98.1021C128.014 98.2657 128.085 98.4294 128.13 98.6027C128.142 98.6522 128.155 98.7016 128.168 98.7511C128.261 99.1064 128.353 99.4628 128.403 99.8274C128.416 99.9204 128.434 100.013 128.452 100.106C128.493 100.325 128.535 100.545 128.513 100.769C128.485 101.165 128.488 101.563 128.509 101.959C128.537 102.534 128.262 103.063 127.984 103.547C127.677 104.051 127.187 104.402 126.669 104.666C126.443 104.796 126.194 104.866 125.945 104.936C125.768 104.986 125.591 105.036 125.421 105.108C125.211 105.187 124.991 105.216 124.77 105.246C124.652 105.262 124.534 105.278 124.418 105.301C124.224 105.34 124.024 105.335 123.827 105.319C123.697 105.303 123.571 105.329 123.446 105.355C123.324 105.38 123.202 105.406 123.076 105.392C123.039 105.395 123 105.392 122.961 105.389C122.885 105.383 122.808 105.377 122.74 105.41C122.604 105.592 122.532 105.811 122.461 106.025C122.456 106.039 122.451 106.053 122.447 106.067C122.371 106.279 122.383 106.499 122.394 106.72C122.401 106.837 122.407 106.954 122.4 107.07C122.386 107.258 122.411 107.444 122.436 107.63C122.453 107.753 122.469 107.876 122.475 107.999C122.487 108.103 122.493 108.207 122.5 108.312C122.517 108.57 122.534 108.828 122.628 109.072C122.785 109.655 123.088 110.197 123.502 110.636C123.56 110.699 123.616 110.764 123.672 110.83C123.779 110.955 123.886 111.08 124.014 111.185C124.151 111.296 124.284 111.414 124.405 111.542C124.52 111.664 124.647 111.771 124.775 111.879C124.895 111.98 125.016 112.082 125.125 112.195C125.374 112.449 125.625 112.699 125.877 112.949C126.053 113.124 126.229 113.299 126.404 113.475C126.496 113.567 126.579 113.667 126.661 113.767C126.776 113.907 126.891 114.046 127.03 114.161C127.088 114.215 127.164 114.213 127.239 114.211C127.324 114.209 127.409 114.207 127.467 114.283C128.045 114.855 128.44 115.574 128.828 116.28L128.854 116.327C129.015 116.575 129.131 116.844 129.247 117.114C129.311 117.262 129.375 117.41 129.446 117.555C129.584 117.838 129.656 118.144 129.729 118.449C129.753 118.551 129.778 118.654 129.805 118.756C129.86 118.971 129.911 119.191 129.893 119.414C129.857 119.975 129.855 120.538 129.892 121.099C129.908 121.453 129.835 121.805 129.748 122.146C129.709 122.293 129.699 122.444 129.689 122.596C129.684 122.685 129.678 122.775 129.666 122.863C129.611 123.357 129.532 123.847 129.454 124.337C129.402 124.661 129.35 124.985 129.304 125.31C129.271 125.473 129.243 125.637 129.214 125.802C129.162 126.109 129.109 126.417 129.02 126.716C128.982 126.846 128.958 126.978 128.935 127.111C128.91 127.252 128.885 127.394 128.842 127.532C128.786 127.708 128.742 127.886 128.697 128.065C128.639 128.297 128.581 128.529 128.499 128.754C128.418 129.12 128.297 129.475 128.176 129.829C128.111 130.022 128.045 130.215 127.985 130.41C127.946 130.541 127.892 130.666 127.837 130.792C127.775 130.936 127.712 131.081 127.672 131.234C127.617 131.438 127.557 131.643 127.474 131.839C127.408 131.993 127.347 132.151 127.287 132.308C127.17 132.613 127.053 132.918 126.892 133.204C126.809 133.272 126.688 133.27 126.576 133.268C126.547 133.268 126.519 133.267 126.492 133.268C126.428 133.254 126.364 133.239 126.3 133.224C126.138 133.187 125.976 133.149 125.809 133.136C125.477 133.104 125.161 133.003 124.845 132.903C124.69 132.853 124.535 132.803 124.377 132.762C124.162 132.704 123.955 132.623 123.748 132.542C123.59 132.48 123.433 132.418 123.272 132.367C123.254 132.362 123.236 132.356 123.219 132.351C123.155 132.33 123.089 132.309 123.022 132.327C122.976 132.76 122.995 133.197 123.015 133.632C123.02 133.757 123.026 133.881 123.03 134.006C123.031 134.105 123.009 134.202 122.988 134.299C122.964 134.407 122.939 134.515 122.946 134.626C122.958 134.803 122.958 134.981 122.916 135.155C122.889 135.255 122.891 135.357 122.892 135.459C122.894 135.569 122.895 135.678 122.862 135.784C122.73 136.151 122.712 136.542 122.695 136.929C122.69 137.029 122.686 137.129 122.68 137.229C122.669 137.332 122.648 137.434 122.627 137.536C122.592 137.705 122.557 137.874 122.57 138.047C122.6 138.115 122.667 138.149 122.734 138.184C122.795 138.215 122.857 138.247 122.894 138.304C122.985 138.45 122.957 138.647 122.868 138.789C122.805 138.881 122.712 138.939 122.619 138.998C122.602 139.008 122.585 139.019 122.568 139.03H125.37C125.37 139.03 125.537 137.112 126.429 136.559C126.898 136.268 127.328 136.367 127.788 136.472L127.788 136.472C128.132 136.551 128.494 136.634 128.9 136.559C132.991 135.809 133.42 131.295 133.815 127.136L133.842 126.851C133.887 126.389 133.834 126.001 133.783 125.628C133.714 125.117 133.648 124.635 133.842 124.027C134.004 123.524 134.281 123.215 134.565 122.898C134.815 122.62 135.07 122.336 135.254 121.909C136.097 119.964 134.815 118.544 133.47 117.054C132.248 115.701 130.975 114.291 131.195 112.378C131.28 111.64 131.502 111.103 131.727 110.56C131.938 110.051 132.151 109.537 132.254 108.848C132.368 108.086 132.207 107.608 132.041 107.115C131.805 106.415 131.56 105.687 132.077 104.082C132.327 103.307 132.816 102.297 133.389 101.113L133.389 101.113C134.839 98.1151 136.828 94.0039 136.843 89.7851C136.865 83.8344 135.254 79.1948 132.077 75.3117C130.069 72.857 130.461 71.4322 130.886 69.8868C131.133 68.9875 131.392 68.0472 131.195 66.8394C130.342 61.6019 127.953 57.761 125.64 54.0411C122.837 49.5322 120.143 45.2009 120.428 38.7751C120.882 28.5303 130.665 14.5938 130.665 14.5938C130.665 14.5938 131.219 12.2744 130.312 11.4167C129.256 10.4177 126.606 11.7697 126.606 11.7697C126.606 11.7697 115.684 24.7482 114.074 34.8919C112.699 43.5578 115.011 49.3724 117.85 56.5121C118.691 58.6256 119.577 60.8553 120.428 63.3093C120.869 64.582 121.528 65.506 122.125 66.3416C123.132 67.7532 123.959 68.9127 123.252 71.0757C122.368 73.7826 118.857 74.5086 115.346 75.2347C113.02 75.7156 110.694 76.1966 109.132 77.2533C101.953 82.1079 99.2474 95.2569 99.2474 95.2569C99.2474 95.2569 95.8719 103.616 91.3046 106.377C87.9566 108.4 86.2486 109.266 82.6559 109.73C78.8657 110.22 76.3017 109.554 72.9481 108.495C71.2159 107.948 69.8376 107.143 68.4107 106.309C67.0751 105.529 65.697 104.723 63.9463 104.082C63.4798 103.911 63.0504 103.756 62.6501 103.616C61.5999 101.501 58.966 99.3011 58.966 99.3011C58.966 99.3011 60.1129 102.023 59.2 102.714C58.7247 102.658 58.2519 102.641 57.7482 102.66L53.3178 97.889C53.3178 97.889 53.8479 103.184 53.3178 103.537C53.3079 103.544 53.3017 103.553 53.2991 103.564C52.0799 104.099 51.1928 104.929 50.0024 106.377C49.7219 106.718 49.4109 107.04 49.1066 107.355L49.1064 107.355C48.0725 108.425 47.1173 109.414 47.7078 110.789C48.1339 111.782 47.1703 113.471 46.3057 114.988C45.6194 116.191 44.9955 117.286 45.1785 117.835C45.3853 118.455 45.7231 119.071 46.061 119.688L46.061 119.688C46.3989 120.304 46.7367 120.921 46.9435 121.541C47.1281 122.095 48.2371 122.329 49.4141 122.576L49.4142 122.576C50.8742 122.884 52.4389 123.213 52.4735 124.204C52.5177 125.474 50.3554 126.675 50.3554 126.675C50.3554 126.675 45.1784 126.546 41.8831 126.851C37.6587 127.243 33.0996 128.976 29.3394 130.406C25.9409 131.698 23.1949 132.742 21.938 132.323C20.7656 131.932 20.1103 131.373 19.5917 130.93C18.9392 130.373 18.503 130.001 17.5254 130.381C16.526 130.77 16.0798 131.372 15.5838 132.323C14.8186 133.79 14.3388 135.47 15.5838 136.559C16.1154 137.024 16.8197 136.749 17.4948 136.484C18.2031 136.207 18.8793 135.942 19.2904 136.559C19.8257 137.362 19.2904 139.03 19.2904 139.03C19.2904 139.03 30.198 136.455 37.294 136.559C40.3507 136.604 42.7262 137.219 45.0693 137.827C47.6427 138.494 50.1772 139.151 53.5325 139.03C58.7204 138.843 61.6194 138.044 66.5939 136.559C67.4952 136.29 68.2236 135.858 68.9135 135.448C70.0464 134.775 71.0753 134.165 72.5951 134.441C73.5311 134.611 74.1057 135.066 74.712 135.545C75.1682 135.906 75.6423 136.28 76.3017 136.559C80.4472 138.31 83.5898 137.741 87.5926 137.016C88.4332 136.864 89.3118 136.705 90.2456 136.559C93.5491 136.043 95.4187 135.636 98.5414 134.441C103.189 132.662 105.576 130.991 109.485 127.91C111.435 126.373 113.664 124.096 115.394 122.217ZM117.313 107.299C117.345 107.059 117.376 106.817 117.325 106.578C117.296 106.571 117.241 106.558 117.213 106.551C117.123 106.655 117.146 106.78 117.168 106.904C117.175 106.941 117.182 106.979 117.185 107.016C117.225 107.266 117.185 107.516 117.144 107.765C117.129 107.855 117.115 107.945 117.104 108.034C117.086 108.213 117.003 108.368 116.919 108.524C116.874 108.609 116.828 108.694 116.793 108.783C116.683 109.026 116.493 109.207 116.304 109.387C116.184 109.501 116.064 109.616 115.964 109.745C115.999 109.884 116.073 110.004 116.147 110.125C116.205 110.218 116.262 110.312 116.302 110.414C116.325 110.505 116.328 110.598 116.332 110.692C116.334 110.745 116.336 110.799 116.341 110.852L116.39 110.863C116.419 110.777 116.441 110.689 116.463 110.6C116.488 110.496 116.514 110.392 116.553 110.292C116.942 109.41 117.196 108.467 117.288 107.506C117.295 107.437 117.304 107.368 117.313 107.299ZM115.88 112.568C115.928 112.467 115.977 112.366 115.97 112.251C115.839 112.322 115.696 112.416 115.651 112.568C115.63 112.688 115.632 112.811 115.634 112.934C115.636 113.104 115.639 113.274 115.581 113.436C115.502 113.648 115.373 113.839 115.222 114.005C115.145 114.09 115.051 114.154 114.957 114.217C114.891 114.262 114.824 114.307 114.764 114.36C114.695 114.507 114.671 114.677 114.677 114.839C114.784 114.931 114.888 115.027 114.991 115.123C115.098 115.223 115.205 115.323 115.317 115.418C115.321 114.86 115.441 114.31 115.629 113.787C115.641 113.753 115.655 113.718 115.669 113.684C115.705 113.592 115.741 113.501 115.758 113.403C115.772 113.307 115.774 113.209 115.776 113.111C115.778 112.985 115.78 112.859 115.809 112.737C115.826 112.679 115.853 112.623 115.88 112.568Z" fill="white"/>
</svg>
