<svg width="16" height="20" viewBox="0 0 16 20" fill="none" xmlns="http://www.w3.org/2000/svg">
<path d="M11.3899 5.43251C9.95174 5.43251 8.77418 6.31084 8.02131 6.31084C7.22018 6.31084 6.17775 5.49042 4.92298 5.49042C2.53889 5.49042 0.125854 7.45943 0.125854 11.1659C0.125854 13.4823 1.01385 15.9242 2.12384 17.4975C3.06976 18.8295 3.89984 19.9202 5.09671 19.9202C6.27427 19.9202 6.79549 19.1384 8.26261 19.1384C9.74905 19.1384 10.0868 19.9008 11.3899 19.9008C12.6833 19.9008 13.5423 18.7137 14.3628 17.5458C15.2701 16.2042 15.6562 14.9011 15.6659 14.8336C15.5886 14.8143 13.1176 13.8008 13.1176 10.9727C13.1176 8.52116 15.0577 7.42083 15.1735 7.33396C13.8898 5.49042 11.9305 5.43251 11.3899 5.43251ZM10.7143 3.86889C11.303 3.15463 11.7181 2.17978 11.7181 1.19528C11.7181 1.06015 11.7085 0.92502 11.6891 0.818848C10.724 0.857456 9.56565 1.45588 8.88035 2.26665C8.33018 2.88438 7.82827 3.86889 7.82827 4.85339C7.82827 5.00782 7.85723 5.15261 7.86687 5.20086C7.92478 5.21051 8.02131 5.22982 8.12748 5.22982C8.98652 5.22982 10.0676 4.65069 10.7143 3.86889Z" fill="white"/>
</svg>
