<svg width="33" height="34" viewBox="0 0 33 34" fill="none" xmlns="http://www.w3.org/2000/svg">
<path d="M27.3774 17.2313C27.3774 17.7534 27.0012 18.1849 26.5131 18.2532L26.3774 18.2626L8.79877 18.2618L15.1494 24.7841C15.5408 25.186 15.5422 25.8389 15.1525 26.2425C14.7982 26.6094 14.2427 26.6439 13.8506 26.3453L13.7383 26.2457L5.67159 17.9627C5.62 17.9097 5.5752 17.8524 5.53717 17.7918C5.52643 17.7736 5.51549 17.7549 5.50513 17.7359C5.49559 17.7196 5.48698 17.7027 5.47885 17.6856C5.46756 17.6607 5.45653 17.635 5.44651 17.6087C5.43838 17.5885 5.43158 17.5688 5.42539 17.5489C5.41802 17.5243 5.41086 17.4981 5.4047 17.4715C5.40013 17.4529 5.3965 17.435 5.39334 17.4171C5.38889 17.3904 5.38511 17.3627 5.3824 17.3347C5.38007 17.3134 5.37867 17.2923 5.37789 17.2711C5.37769 17.2583 5.37744 17.2448 5.37744 17.2313L5.37794 17.1914C5.37871 17.1711 5.38005 17.1509 5.38197 17.1307L5.37744 17.2313C5.37744 17.1663 5.38329 17.1026 5.39446 17.0409C5.39706 17.0261 5.40015 17.011 5.40357 16.9959C5.41067 16.9649 5.41888 16.935 5.42833 16.9057C5.43297 16.8911 5.43838 16.8755 5.44415 16.8601C5.45584 16.8291 5.46854 16.7995 5.48251 16.7707C5.489 16.7571 5.49627 16.7429 5.50389 16.7289C5.51638 16.706 5.52926 16.6842 5.54287 16.663C5.55248 16.648 5.56311 16.6324 5.57422 16.617L5.58287 16.6051C5.60981 16.5688 5.63904 16.5344 5.67033 16.5021L5.67153 16.5012L13.7382 8.2168C14.1295 7.8149 14.7627 7.81626 15.1524 8.21982C15.5067 8.58669 15.5378 9.15967 15.2465 9.56277L15.1495 9.67822L8.80144 16.1993L26.3774 16.2001C26.9297 16.2001 27.3774 16.6618 27.3774 17.2313Z" fill="#2D264B"/>
</svg>
