<svg width="24" height="24" viewBox="0 0 24 24" fill="none" xmlns="http://www.w3.org/2000/svg">
<path d="M7.98063 3.14167H18.4889C18.4308 2.4 17.9992 2 17.2024 2H9.25889C8.47036 2 8.03043 2.4 7.98063 3.14167ZM6.28735 5.54167H20.1822C20.066 4.75 19.6676 4.3 18.7877 4.3H7.68182C6.80198 4.3 6.40356 4.75 6.28735 5.54167ZM9.68221 20.8833H19.2775C21.0621 20.8833 22 19.95 22 18.175V9.60833C22 7.825 21.0621 6.9 19.2775 6.9H7.18379C5.39091 6.9 4.46126 7.825 4.46126 9.60833V12.3083C4.72688 12.2667 5.00079 12.2333 5.2747 12.2333C5.54862 12.2333 5.81423 12.2667 6.08814 12.3083V9.74167C6.08814 8.93333 6.51146 8.53333 7.2834 8.53333H19.1779C19.9415 8.53333 20.3731 8.93333 20.3731 9.74167V18.0333C20.3731 18.8417 19.9415 19.25 19.1779 19.25H10.4791C10.3213 19.8417 10.0474 20.4 9.68221 20.8833ZM5.2747 22C7.59881 22 9.54941 20.05 9.54941 17.7083C9.54941 15.3583 7.61542 13.425 5.2747 13.425C2.93399 13.425 1 15.3583 1 17.7083C1 20.0667 2.93399 22 5.2747 22ZM3.87194 19.3917V16.025C3.87194 15.65 4.24545 15.4833 4.56917 15.675L7.2751 17.3083C7.61541 17.5083 7.63202 17.9083 7.3249 18.0917L4.56917 19.7333C4.24545 19.9333 3.87194 19.7667 3.87194 19.3917Z" fill="#4B545F"/>
</svg>
