<svg width="15" height="11" viewBox="0 0 15 11" fill="none" xmlns="http://www.w3.org/2000/svg">
<path d="M5.39726 10.2843C5.28309 10.2843 5.17606 10.2663 5.07617 10.2304C4.97627 10.195 4.88351 10.1345 4.79789 10.0488L1.116 6.36696C0.959025 6.20998 0.88396 6.00647 0.89081 5.75645C0.898231 5.50699 0.980431 5.30378 1.13741 5.1468C1.29439 4.98982 1.49418 4.91133 1.73679 4.91133C1.97939 4.91133 2.17918 4.98982 2.33616 5.1468L5.39726 8.2079L12.654 0.951167C12.811 0.794188 13.0145 0.715698 13.2645 0.715698C13.514 0.715698 13.7172 0.794188 13.8742 0.951167C14.0311 1.10815 14.1096 1.31136 14.1096 1.56082C14.1096 1.81084 14.0311 2.01435 13.8742 2.17133L5.99664 10.0488C5.91101 10.1345 5.81825 10.195 5.71836 10.2304C5.61846 10.2663 5.51143 10.2843 5.39726 10.2843Z" fill="white"/>
</svg>
